Coordinates
version=1
nRows=14
nColumns=46
inDegrees=yes

Units are S.I. units (second, meters, Newtons, ...)
Angles are in degrees.

endheader
time	pelvis_tilt	pelvis_list	pelvis_rotation	pelvis_tx	pelvis_ty	pelvis_tz	bb_angle	bb_tx	bb_ty	bb_tz	hip_flexion_r	hip_adduction_r	hip_rotation_r	knee_angle_r	knee_angle_r_beta	ankle_angle_r	subtalar_angle_r	mtp_angle_r	crank_angle_r	hip_flexion_l	hip_adduction_l	hip_rotation_l	knee_angle_l	knee_angle_l_beta	ankle_angle_l	subtalar_angle_l	mtp_angle_l	crank_angle_l	lumbar_extension	lumbar_bending	lumbar_rotation	arm_flex_r	arm_add_r	arm_rot_r	elbow_flex_r	pro_sup_r	wrist_flex_r	wrist_dev_r	arm_flex_l	arm_add_l	arm_rot_l	elbow_flex_l	pro_sup_l	wrist_flex_l	wrist_dev_l
      7.50500000	    -21.02659438	      9.16158644	     -2.96620384	      0.08524568	      1.00770362	     -0.19579653	      0.00000000	      0.50000000	      0.00000000	      0.25000000	     46.00026749	    -13.10113322	     -5.31879635	     39.54461417	      0.69018372	     -7.23538388	      0.41589876	      0.00000000	      0.00000000	    109.60465683	     -2.34914417	      3.54242493	    111.71439353	      1.94978399	    -28.54706064	    -10.18719598	      0.00000000	      0.00000000	    -49.42932047	     -9.62662943	     -7.12340286	     89.34101908	     -8.93565763	     39.31973758	     38.68868217	     33.61118816	      0.00000000	      0.00000000	     89.41797111	    -14.93482031	     38.81498147	     50.67785862	     39.51908995	      0.00000000	      0.00000000
      7.51000000	    -21.57786372	      9.25276350	     -2.85244034	      0.08439431	      1.00817509	     -0.19601947	      0.00000000	      0.50000000	      0.00000000	      0.25000000	     47.23480234	    -13.28652743	     -4.96469795	     41.62653478	      0.72652009	     -7.32204523	     -0.46259674	      0.00000000	      0.00000000	    109.49004951	     -2.23500726	      3.31525793	    110.28781844	      1.92488556	    -27.08664566	    -10.37351411	      0.00000000	      0.00000000	    -49.07500462	     -9.83421867	     -7.26984405	     89.33576744	     -9.14262247	     39.25468410	     38.79364815	     33.66549431	      0.00000000	      0.00000000	     89.42175503	    -14.81701500	     38.60777324	     51.14057148	     39.51935873	      0.00000000	      0.00000000
      7.51500000	    -22.03085814	      9.16608031	     -2.78271348	      0.08355446	      1.00858912	     -0.19619544	      0.00000000	      0.50000000	      0.00000000	      0.25000000	     48.46173560	    -13.28456041	     -4.62161045	     43.89499894	      0.76611226	     -7.50594882	     -1.46192978	      0.00000000	      0.00000000	    109.13751166	     -2.15235034	      3.27646171	    108.76895949	      1.89837647	    -25.42486399	    -10.58537076	      0.00000000	      0.00000000	    -48.77825775	     -9.87232378	     -7.22490753	     89.34668565	     -9.28255089	     39.19673868	     38.89004399	     33.71674988	      0.00000000	      0.00000000	     89.42569427	    -14.71317525	     38.42824086	     51.45595634	     39.49592331	      0.00000000	      0.00000000
      7.52000000	    -22.35671105	      8.84625548	     -2.69373855	      0.08282732	      1.00901281	     -0.19650669	      0.00000000	      0.50000000	      0.00000000	      0.25000000	     49.59146969	    -13.15816114	     -4.48789756	     46.32092794	      0.80845271	     -7.75981990	     -2.25936527	      0.00000000	      0.00000000	    108.52565244	     -2.08128934	      3.35869308	    107.22497080	      1.87142878	    -23.65126978	    -10.99735981	      0.00000000	      0.00000000	    -48.56831561	     -9.66902092	     -7.02171393	     89.37759476	     -9.36788955	     39.14247753	     38.94380511	     33.74034988	      0.00000000	      0.00000000	     89.42827341	    -14.63864724	     38.31410232	     51.62275360	     39.48217642	      0.00000000	      0.00000000
      7.52500000	    -22.86512687	      8.68025518	     -2.50435070	      0.08220998	      1.00930375	     -0.19664558	      0.00000000	      0.50000000	      0.00000000	      0.25000000	     50.96583210	    -13.09109309	     -4.11710704	     48.77226795	      0.85123666	     -7.97633029	     -3.42328817	      0.00000000	      0.00000000	    107.80716448	     -1.98314533	      3.16956473	    105.42431022	      1.84000132	    -21.47787923	    -11.32572980	      0.00000000	      0.00000000	    -48.21071901	     -9.56716162	     -6.96253713	     89.35848872	     -9.54105748	     38.96540713	     39.10080117	     33.81632149	      0.00000000	      0.00000000	     89.42777346	    -14.48773285	     38.09705959	     51.87410083	     39.48374155	      0.00000000	      0.00000000
      7.53000000	    -23.24075739	      8.67689991	     -2.48355967	      0.08113797	      1.00945595	     -0.19688443	      0.00000000	      0.50000000	      0.00000000	      0.25000000	     52.45064796	    -12.98728410	     -3.34271031	     51.38938583	      0.89691398	     -8.31249546	     -4.73719449	      0.00000000	      0.00000000	    106.84644723	     -2.06452370	      2.88286488	    103.44424241	      1.80544262	    -19.40539269	    -11.42636716	      0.00000000	      0.00000000	    -47.92582670	     -9.66943660	     -6.90993743	     89.36479105	     -9.69815436	     38.87335885	     39.15770164	     33.86686881	      0.00000000	      0.00000000	     89.44063715	    -14.27750695	     37.92159066	     51.98410180	     39.42335223	      0.00000000	      0.00000000
      7.53500000	    -23.53700564	      8.31013695	     -2.47669782	      0.08043347	      1.00950778	     -0.19702826	      0.00000000	      0.50000000	      0.00000000	      0.25000000	     53.76533381	    -12.62648408	     -2.91155221	     54.05896236	      0.94350688	     -8.46473379	     -5.68339941	      0.00000000	      0.00000000	    105.74012332	     -2.18743452	      2.92166954	    101.41744554	      1.77006834	    -17.40182777	    -11.68278759	      0.00000000	      0.00000000	    -47.65229001	     -9.46135642	     -6.60981867	     89.37203147	     -9.76473802	     38.79924399	     39.18346142	     33.90213659	      0.00000000	      0.00000000	     89.43910475	    -14.17275338	     37.76676809	     52.04474794	     39.38301034	      0.00000000	      0.00000000
      7.54000000	    -23.87775561	      8.14358037	     -2.42415371	      0.07981371	      1.00955306	     -0.19685302	      0.00000000	      0.50000000	      0.00000000	      0.25000000	     55.18530457	    -12.34328015	     -2.27149047	     56.72933493	      0.99011368	     -8.70909491	     -6.94096424	      0.00000000	      0.00000000	    104.44470512	     -2.42377296	      2.69960639	     99.10369469	      1.72968577	    -15.18477760	    -11.38751942	      0.00000000	      0.00000000	    -47.36458081	     -9.45015867	     -6.46723151	     89.37384875	     -9.86617967	     38.71059029	     39.17321579	     33.94194543	      0.00000000	      0.00000000	     89.44496574	    -13.95784592	     37.59634631	     52.04005065	     39.29800374	      0.00000000	      0.00000000
      7.54500000	    -24.09347428	      7.81816573	     -2.33883211	      0.07936385	      1.00954186	     -0.19683512	      0.00000000	      0.50000000	      0.00000000	      0.25000000	     56.42700286	    -11.98205339	     -1.78536140	     59.44871851	      1.03757587	     -8.62382870	     -7.91932718	      0.00000000	      0.00000000	    102.92110650	     -2.57620803	      2.57709940	     96.70992714	      1.68790665	    -13.06791205	    -11.41241525	      0.00000000	      0.00000000	    -47.15150323	     -9.20238260	     -6.22918209	     89.37532579	     -9.90530574	     38.67691931	     39.12491191	     33.96042914	      0.00000000	      0.00000000	     89.44785526	    -13.83040444	     37.49857450	     52.01761814	     39.23262769	      0.00000000	      0.00000000
      7.55000000	    -24.24369610	      7.51433658	     -2.32425027	      0.07905865	      1.00945891	     -0.19650802	      0.00000000	      0.50000000	      0.00000000	      0.25000000	     57.64759791	    -11.53151448	     -1.24490329	     62.18239836	      1.08528759	     -8.64427464	     -8.99085915	      0.00000000	      0.00000000	    101.21642390	     -2.91035086	      2.44806285	     94.22933247	      1.64461210	    -10.49939762	    -10.56806469	      0.00000000	      0.00000000	    -47.00003635	     -9.04279212	     -6.01448954	     89.37348678	     -9.90362548	     38.63175773	     39.02566163	     33.99669014	      0.00000000	      0.00000000	     89.45174200	    -13.65254275	     37.35367993	     51.89376971	     39.09626820	      0.00000000	      0.00000000
      7.55500000	    -24.31849625	      7.10980006	     -2.32150676	      0.07898524	      1.00927725	     -0.19654492	      0.00000000	      0.50000000	      0.00000000	      0.25000000	     58.74630856	    -11.06461152	     -0.84893767	     64.89762547	      1.13267724	     -8.30367983	     -9.81456851	      0.00000000	      0.00000000	     99.37954483	     -3.20329466	      2.28417487	     91.74367909	      1.60122927	     -8.18160800	    -10.56196238	      0.00000000	      0.00000000	    -46.87410223	     -8.72766482	     -5.66947572	     89.37408296	     -9.88704496	     38.60246049	     38.96982460	     34.01444585	      0.00000000	      0.00000000	     89.44153462	    -13.56403839	     37.30563485	     51.85494170	     39.03566369	      0.00000000	      0.00000000
      7.56000000	    -24.29110085	      6.86793982	     -2.19343950	      0.07913055	      1.00942071	     -0.19678381	      0.00000000	      0.50000000	      0.00000000	      0.25000000	     59.75398016	    -10.84669450	     -0.44102979	     67.57780944	      1.17945528	     -7.95006754	    -10.57771884	      0.00000000	      0.00000000	     97.25157760	     -3.36608463	      1.84917774	     89.06670604	      1.55450727	     -5.77930227	    -10.49078023	      0.00000000	      0.00000000	    -46.90263282	     -8.43507685	     -5.54623280	     89.37696509	     -9.88925162	     38.57608370	     38.90619198	     34.02672926	      0.00000000	      0.00000000	     89.43670997	    -13.45501947	     37.30043796	     51.76379839	     38.97807623	      0.00000000	      0.00000000
      7.56500000	    -24.18706533	      6.64757101	     -2.14372200	      0.07937711	      1.00941170	     -0.19669322	      0.00000000	      0.50000000	      0.00000000	      0.25000000	     60.73155308	    -10.54345678	      0.00847111	     70.28109428	      1.22663650	     -7.62723733	    -11.25496766	      0.00000000	      0.00000000	     94.96835287	     -3.63695633	      1.40688550	     86.28034620	      1.50587612	     -3.40427791	     -9.95847571	      0.00000000	      0.00000000	    -46.97664213	     -8.22871134	     -5.44125511	     89.37209812	     -9.82596873	     38.53579666	     38.86914322	     34.05086927	      0.00000000	      0.00000000	     89.43286945	    -13.38784394	     37.30423514	     51.60261965	     38.89680165	      0.00000000	      0.00000000
      7.57000000	    -24.05448226	      6.26962964	     -2.13696225	      0.07967170	      1.00908003	     -0.19661894	      0.00000000	      0.50000000	      0.00000000	      0.25000000	     61.67242965	    -10.07892134	      0.36839447	     73.01158094	      1.27429248	     -7.08686287	    -11.89752869	      0.00000000	      0.00000000	     92.67474839	     -3.89362760	      1.13736787	     83.43804919	      1.45626868	     -1.40863916	     -9.79918416	      0.00000000	      0.00000000	    -47.00357842	     -7.87267188	     -5.16011030	     89.37671168	     -9.75370921	     38.50891462	     38.82892614	     34.06761493	      0.00000000	      0.00000000	     89.42576791	    -13.38076622	     37.30033421	     51.47635012	     38.83741277	      0.00000000	      0.00000000
